<svg data-v-423bf9ae="" xmlns="http://www.w3.org/2000/svg" viewBox="0 0 296 90" class="iconLeft"><!----><!----><!----><g data-v-423bf9ae="" id="a60f6c17-4041-40fb-90ec-06557f89ab10" fill="black" transform="matrix(3.8684721343545787,0,0,3.8684721343545787,130.69901320111308,3.2398462896440563)"><path d="M10.42 5.00L10.42 5.00L10.42 5.00Q10.08 4.98 9.74 4.96L9.74 4.96L9.74 4.96Q9.40 4.94 9.01 4.92L9.01 4.92L9.01 4.92Q8.62 4.90 8.15 4.89L8.15 4.89L8.15 4.89Q7.68 4.87 7.10 4.87L7.10 4.87L7.10 4.87Q6.34 4.87 5.64 4.91L5.64 4.91L5.64 4.91Q4.94 4.95 4.25 5.05L4.25 5.05L4.25 5.05Q3.55 5.15 2.86 5.34L2.86 5.34L2.86 5.34Q2.17 5.52 1.45 5.82L1.45 5.82L1.45 5.82Q1.74 6.64 1.92 7.43L1.92 7.43L1.92 7.43Q2.10 8.22 2.20 8.93L2.20 8.93L2.20 8.93Q2.30 9.64 2.33 10.26L2.33 10.26L2.33 10.26Q2.37 10.88 2.37 11.38L2.37 11.38L2.37 11.38Q2.37 11.85 2.34 12.21L2.34 12.21L2.34 12.21Q2.32 12.57 2.30 12.81L2.30 12.81L2.30 12.81Q2.27 13.10 2.23 13.30L2.23 13.30L2.23 13.30Q2.56 12.52 2.87 11.65L2.87 11.65L2.87 11.65Q3.18 10.78 3.46 9.92L3.46 9.92L3.46 9.92Q3.74 9.06 3.98 8.26L3.98 8.26L3.98 8.26Q4.22 7.46 4.40 6.83L4.40 6.83L4.40 6.83Q4.58 6.19 4.70 5.77L4.70 5.77L4.70 5.77Q4.81 5.34 4.85 5.22L4.85 5.22L4.85 5.22Q5.00 5.35 5.21 5.54L5.21 5.54L5.21 5.54Q5.43 5.73 5.65 5.93L5.65 5.93L5.65 5.93Q5.87 6.14 6.05 6.33L6.05 6.33L6.05 6.33Q6.24 6.51 6.34 6.64L6.34 6.64L6.34 6.64Q6.17 7.27 5.89 8.04L5.89 8.04L5.89 8.04Q5.61 8.80 5.27 9.62L5.27 9.62L5.27 9.62Q4.94 10.43 4.57 11.25L4.57 11.25L4.57 11.25Q4.20 12.07 3.85 12.80L3.85 12.80L3.85 12.80Q3.50 13.53 3.20 14.13L3.20 14.13L3.20 14.13Q2.91 14.73 2.71 15.12L2.71 15.12L2.71 15.12Q2.61 15.02 2.46 14.84L2.46 14.84L2.46 14.84Q2.31 14.66 2.15 14.48L2.15 14.48L2.15 14.48Q2.00 14.30 1.86 14.14L1.86 14.14L1.86 14.14Q1.73 13.99 1.67 13.92L1.67 13.92L1.67 13.92Q1.68 13.84 1.72 13.63L1.72 13.63L1.72 13.63Q1.76 13.43 1.79 13.13L1.79 13.13L1.79 13.13Q1.83 12.82 1.86 12.42L1.86 12.42L1.86 12.42Q1.89 12.02 1.89 11.53L1.89 11.53L1.89 11.53Q1.89 10.96 1.84 10.32L1.84 10.32L1.84 10.32Q1.79 9.67 1.65 8.98L1.65 8.98L1.65 8.98Q1.51 8.28 1.25 7.54L1.25 7.54L1.25 7.54Q0.99 6.80 0.57 6.05L0.57 6.05L0.57 6.05Q0.57 6.05 0.57 6.04L0.57 6.04L0.57 6.04Q0.56 6.04 0.56 6.01L0.56 6.01L0.56 6.01Q0.56 5.94 0.61 5.82L0.61 5.82L0.61 5.82Q0.66 5.70 0.73 5.56L0.73 5.56L0.73 5.56Q0.81 5.42 0.91 5.28L0.91 5.28L0.91 5.28Q1.00 5.14 1.08 5.04L1.08 5.04L1.08 5.04Q1.11 5.00 1.41 4.84L1.41 4.84L1.41 4.84Q1.70 4.69 2.22 4.48L2.22 4.48L2.22 4.48Q2.73 4.27 3.45 4.03L3.45 4.03L3.45 4.03Q4.16 3.79 5.03 3.59L5.03 3.59L5.03 3.59Q5.90 3.38 6.90 3.25L6.90 3.25L6.90 3.25Q7.90 3.12 8.99 3.12L8.99 3.12L8.99 3.12Q9.04 3.18 9.14 3.31L9.14 3.31L9.14 3.31Q9.25 3.43 9.39 3.60L9.39 3.60L9.39 3.60Q9.52 3.77 9.68 3.96L9.68 3.96L9.68 3.96Q9.83 4.16 9.97 4.34L9.97 4.34L9.97 4.34Q10.12 4.53 10.23 4.70L10.23 4.70L10.23 4.70Q10.35 4.87 10.42 5.00ZM10.62 13.10L10.62 13.10L10.62 13.10Q10.73 13.10 10.90 13.02L10.90 13.02L10.90 13.02Q11.07 12.93 11.28 12.79L11.28 12.79L11.28 12.79Q11.48 12.65 11.70 12.49L11.70 12.49L11.70 12.49Q11.92 12.32 12.12 12.16L12.12 12.16L12.12 12.16Q12.33 12.00 12.48 11.86L12.48 11.86L12.48 11.86Q12.64 11.73 12.72 11.66L12.72 11.66L12.72 11.66Q12.78 11.72 12.87 11.82L12.87 11.82L12.87 11.82Q12.95 11.92 13.03 12.00L13.03 12.00L13.03 12.00Q12.88 12.15 12.65 12.36L12.65 12.36L12.65 12.36Q12.43 12.56 12.17 12.78L12.17 12.78L12.17 12.78Q11.91 13.00 11.63 13.21L11.63 13.21L11.63 13.21Q11.35 13.43 11.08 13.60L11.08 13.60L11.08 13.60Q10.81 13.77 10.58 13.87L10.58 13.87L10.58 13.87Q10.35 13.97 10.19 13.97L10.19 13.97L10.19 13.97Q10.06 13.97 9.89 13.91L9.89 13.91L9.89 13.91Q9.71 13.84 9.55 13.74L9.55 13.74L9.55 13.74Q9.39 13.64 9.28 13.52L9.28 13.52L9.28 13.52Q9.17 13.41 9.17 13.29L9.17 13.29L9.17 13.29Q9.17 13.00 9.28 12.61L9.28 12.61L9.28 12.61Q9.38 12.22 9.52 11.81L9.52 11.81L9.52 11.81Q9.66 11.40 9.82 11.00L9.82 11.00L9.82 11.00Q9.98 10.60 10.12 10.28L10.12 10.28L10.12 10.28Q10.06 10.29 9.91 10.43L9.91 10.43L9.91 10.43Q9.75 10.57 9.53 10.80L9.53 10.80L9.53 10.80Q9.30 11.04 9.04 11.37L9.04 11.37L9.04 11.37Q8.78 11.70 8.52 12.11L8.52 12.11L8.52 12.11Q8.26 12.52 8.03 13.00L8.03 13.00L8.03 13.00Q7.80 13.47 7.64 14L7.64 14L7.64 14Q7.62 14.08 7.58 14.11L7.58 14.11L7.58 14.11Q7.55 14.14 7.46 14.14L7.46 14.14L7.46 14.14Q7.40 14.14 7.27 14.08L7.27 14.08L7.27 14.08Q7.14 14.02 6.99 13.94L6.99 13.94L6.99 13.94Q6.85 13.85 6.71 13.75L6.71 13.75L6.71 13.75Q6.58 13.66 6.49 13.58L6.49 13.58L6.49 13.58Q6.45 13.54 6.43 13.49L6.43 13.49L6.43 13.49Q6.40 13.45 6.40 13.37L6.40 13.37L6.40 13.37Q6.40 12.92 6.55 12.26L6.55 12.26L6.55 12.26Q6.70 11.61 6.96 10.84L6.96 10.84L6.96 10.84Q7.23 10.07 7.58 9.23L7.58 9.23L7.58 9.23Q7.93 8.39 8.33 7.59L8.33 7.59L8.33 7.59Q8.73 6.78 9.16 6.05L9.16 6.05L9.16 6.05Q9.60 5.33 10.02 4.77L10.02 4.77L10.02 4.77Q10.44 4.21 10.82 3.87L10.82 3.87L10.82 3.87Q11.21 3.53 11.53 3.51L11.53 3.51L11.53 3.51Q11.69 3.56 11.85 3.66L11.85 3.66L11.85 3.66Q12.01 3.77 12.15 3.89L12.15 3.89L12.15 3.89Q12.30 4.01 12.41 4.13L12.41 4.13L12.41 4.13Q12.52 4.25 12.58 4.33L12.58 4.33L12.58 4.33Q12.63 4.38 12.64 4.46L12.64 4.46L12.64 4.46Q12.65 4.53 12.65 4.57L12.65 4.57L12.65 4.57Q12.65 4.81 12.52 5.17L12.52 5.17L12.52 5.17Q12.38 5.54 12.13 5.99L12.13 5.99L12.13 5.99Q11.89 6.44 11.54 6.96L11.54 6.96L11.54 6.96Q11.18 7.47 10.76 8.02L10.76 8.02L10.76 8.02Q10.33 8.56 9.83 9.11L9.83 9.11L9.83 9.11Q9.34 9.67 8.80 10.19L8.80 10.19L8.80 10.19Q8.66 10.55 8.55 10.90L8.55 10.90L8.55 10.90Q8.92 10.52 9.23 10.26L9.23 10.26L9.23 10.26Q9.54 10.00 9.78 9.85L9.78 9.85L9.78 9.85Q10.01 9.69 10.18 9.63L10.18 9.63L10.18 9.63Q10.35 9.56 10.44 9.56L10.44 9.56L10.44 9.56Q10.50 9.56 10.66 9.64L10.66 9.64L10.66 9.64Q10.81 9.72 10.99 9.83L10.99 9.83L10.99 9.83Q11.16 9.94 11.30 10.06L11.30 10.06L11.30 10.06Q11.44 10.17 11.48 10.25L11.48 10.25L11.48 10.25Q11.49 10.28 11.48 10.34L11.48 10.34L11.48 10.34Q11.46 10.40 11.45 10.43L11.45 10.43L11.45 10.43Q11.39 10.62 11.30 10.86L11.30 10.86L11.30 10.86Q11.22 11.10 11.12 11.37L11.12 11.37L11.12 11.37Q11.02 11.64 10.92 11.92L10.92 11.92L10.92 11.92Q10.83 12.19 10.75 12.42L10.75 12.42L10.75 12.42Q10.68 12.65 10.63 12.82L10.63 12.82L10.63 12.82Q10.58 13.00 10.58 13.06L10.58 13.06L10.58 13.06Q10.58 13.10 10.62 13.10ZM10.02 7.23L10.02 7.23L10.02 7.23Q9.86 7.57 9.70 7.92L9.70 7.92L9.70 7.92Q9.55 8.26 9.41 8.61L9.41 8.61L9.41 8.61Q9.86 8.03 10.29 7.42L10.29 7.42L10.29 7.42Q10.73 6.82 11.06 6.26L11.06 6.26L11.06 6.26Q11.40 5.70 11.61 5.23L11.61 5.23L11.61 5.23Q11.81 4.76 11.81 4.44L11.81 4.44L11.81 4.44Q11.81 4.29 11.76 4.29L11.76 4.29L11.76 4.29Q11.68 4.29 11.51 4.51L11.51 4.51L11.51 4.51Q11.34 4.73 11.11 5.12L11.11 5.12L11.11 5.12Q10.88 5.51 10.60 6.05L10.60 6.05L10.60 6.05Q10.32 6.59 10.02 7.23ZM17.10 11.66L17.44 12.00L17.44 12.00Q16.81 12.61 16.25 13.03L16.25 13.03L16.25 13.03Q15.70 13.45 15.19 13.70L15.19 13.70L15.19 13.70Q14.68 13.95 14.22 14.06L14.22 14.06L14.22 14.06Q13.76 14.17 13.32 14.17L13.32 14.17L13.32 14.17Q13.14 14.17 12.91 14.03L12.91 14.03L12.91 14.03Q12.69 13.90 12.49 13.70L12.49 13.70L12.49 13.70Q12.30 13.51 12.17 13.30L12.17 13.30L12.17 13.30Q12.04 13.08 12.04 12.93L12.04 12.93L12.04 12.93Q12.04 12.37 12.19 11.90L12.19 11.90L12.19 11.90Q12.35 11.44 12.60 11.06L12.60 11.06L12.60 11.06Q12.85 10.68 13.18 10.40L13.18 10.40L13.18 10.40Q13.50 10.11 13.85 9.92L13.85 9.92L13.85 9.92Q14.21 9.73 14.55 9.63L14.55 9.63L14.55 9.63Q14.90 9.54 15.20 9.54L15.20 9.54L15.20 9.54Q15.41 9.54 15.62 9.66L15.62 9.66L15.62 9.66Q15.83 9.78 16.00 9.96L16.00 9.96L16.00 9.96Q16.17 10.14 16.27 10.33L16.27 10.33L16.27 10.33Q16.38 10.53 16.38 10.67L16.38 10.67L16.38 10.67Q16.38 10.90 16.18 11.15L16.18 11.15L16.18 11.15Q15.99 11.39 15.63 11.64L15.63 11.64L15.63 11.64Q15.28 11.89 14.78 12.16L14.78 12.16L14.78 12.16Q14.28 12.42 13.68 12.69L13.68 12.69L13.68 12.69Q13.66 12.85 13.66 13.01L13.66 13.01L13.66 13.01Q13.66 13.22 13.75 13.30L13.75 13.30L13.75 13.30Q13.84 13.37 14.10 13.37L14.10 13.37L14.10 13.37Q14.55 13.37 14.95 13.22L14.95 13.22L14.95 13.22Q15.35 13.07 15.72 12.83L15.72 12.83L15.72 12.83Q16.08 12.59 16.43 12.28L16.43 12.28L16.43 12.28Q16.77 11.98 17.10 11.66L17.10 11.66ZM15.03 10.29L15.03 10.29L15.03 10.29Q14.90 10.29 14.73 10.44L14.73 10.44L14.73 10.44Q14.57 10.58 14.40 10.82L14.40 10.82L14.40 10.82Q14.24 11.06 14.09 11.37L14.09 11.37L14.09 11.37Q13.94 11.68 13.83 12.02L13.83 12.02L13.83 12.02Q14.08 11.85 14.32 11.67L14.32 11.67L14.32 11.67Q14.57 11.48 14.76 11.28L14.76 11.28L14.76 11.28Q14.95 11.08 15.07 10.87L15.07 10.87L15.07 10.87Q15.18 10.66 15.18 10.45L15.18 10.45L15.18 10.45Q15.18 10.38 15.15 10.34L15.15 10.34L15.15 10.34Q15.11 10.29 15.03 10.29ZM29.78 4.54L29.78 4.54L29.78 4.54Q29.78 4.55 29.80 4.60L29.80 4.60L29.80 4.60Q29.83 4.66 29.85 4.72L29.85 4.72L29.85 4.72Q29.87 4.79 29.88 4.85L29.88 4.85L29.88 4.85Q29.90 4.92 29.90 4.94L29.90 4.94L29.90 4.94Q29.90 5.17 29.80 5.50L29.80 5.50L29.80 5.50Q29.71 5.82 29.54 6.19L29.54 6.19L29.54 6.19Q29.37 6.55 29.15 6.92L29.15 6.92L29.15 6.92Q28.92 7.30 28.67 7.64L28.67 7.64L28.67 7.64Q28.42 7.98 28.15 8.25L28.15 8.25L28.15 8.25Q27.88 8.53 27.62 8.70L27.62 8.70L27.62 8.70Q27.52 8.61 27.39 8.48L27.39 8.48L27.39 8.48Q27.25 8.36 27.10 8.22L27.10 8.22L27.10 8.22Q26.95 8.08 26.80 7.94L26.80 7.94L26.80 7.94Q26.65 7.79 26.52 7.66L26.52 7.66L26.52 7.66Q26.72 7.50 26.97 7.24L26.97 7.24L26.97 7.24Q27.22 6.99 27.48 6.67L27.48 6.67L27.48 6.67Q27.73 6.36 27.98 6.02L27.98 6.02L27.98 6.02Q28.23 5.69 28.41 5.38L28.41 5.38L28.41 5.38Q28.59 5.07 28.69 4.81L28.69 4.81L28.69 4.81Q28.79 4.56 28.77 4.41L28.77 4.41L28.77 4.41Q28.75 4.33 28.70 4.30L28.70 4.30L28.70 4.30Q28.66 4.27 28.54 4.27L28.54 4.27L28.54 4.27Q28.12 4.27 27.58 4.44L27.58 4.44L27.58 4.44Q27.03 4.60 26.43 4.91L26.43 4.91L26.43 4.91Q25.84 5.22 25.23 5.67L25.23 5.67L25.23 5.67Q24.63 6.13 24.10 6.69L24.10 6.69L24.10 6.69Q23.57 7.26 23.16 7.94L23.16 7.94L23.16 7.94Q22.74 8.61 22.52 9.38L22.52 9.38L22.52 9.38Q23.00 9.37 23.43 9.34L23.43 9.34L23.43 9.34Q23.86 9.31 24.25 9.28L24.25 9.28L24.25 9.28Q24.64 9.24 25.00 9.21L25.00 9.21L25.00 9.21Q25.35 9.19 25.69 9.19L25.69 9.19L25.69 9.19Q25.87 9.19 26.07 9.38L26.07 9.38L26.07 9.38Q26.28 9.57 26.46 9.84L26.46 9.84L26.46 9.84Q26.63 10.10 26.75 10.38L26.75 10.38L26.75 10.38Q26.87 10.66 26.87 10.83L26.87 10.83L26.87 10.83Q26.87 11.32 26.62 11.81L26.62 11.81L26.62 11.81Q26.37 12.30 25.95 12.75L25.95 12.75L25.95 12.75Q25.53 13.21 24.97 13.60L24.97 13.60L24.97 13.60Q24.42 13.99 23.81 14.28L23.81 14.28L23.81 14.28Q23.19 14.57 22.56 14.74L22.56 14.74L22.56 14.74Q21.92 14.91 21.35 14.91L21.35 14.91L21.35 14.91Q21.27 14.85 21.15 14.72L21.15 14.72L21.15 14.72Q21.03 14.59 20.89 14.44L20.89 14.44L20.89 14.44Q20.75 14.29 20.60 14.12L20.60 14.12L20.60 14.12Q20.45 13.95 20.33 13.79L20.33 13.79L20.33 13.79Q20.20 13.63 20.10 13.50L20.10 13.50L20.10 13.50Q20.01 13.37 19.97 13.30L19.97 13.30L19.97 13.30Q20.35 13.36 20.88 13.33L20.88 13.33L20.88 13.33Q21.41 13.30 22.00 13.18L22.00 13.18L22.00 13.18Q22.59 13.06 23.18 12.83L23.18 12.83L23.18 12.83Q23.78 12.60 24.30 12.25L24.30 12.25L24.30 12.25Q24.82 11.90 25.22 11.42L25.22 11.42L25.22 11.42Q25.61 10.94 25.79 10.30L25.79 10.30L25.79 10.30Q25.40 10.31 25.07 10.34L25.07 10.34L25.07 10.34Q24.75 10.37 24.45 10.41L24.45 10.41L24.45 10.41Q24.15 10.45 23.84 10.47L23.84 10.47L23.84 10.47Q23.52 10.50 23.14 10.50L23.14 10.50L23.14 10.50Q23.02 10.50 22.87 10.50L22.87 10.50L22.87 10.50Q22.73 10.49 22.59 10.48L22.59 10.48L22.59 10.48Q22.44 10.46 22.31 10.42L22.31 10.42L22.31 10.42Q22.18 10.38 22.10 10.30L22.10 10.30L22.10 10.30Q21.92 10.14 21.75 9.97L21.75 9.97L21.75 9.97Q21.57 9.80 21.44 9.61L21.44 9.61L21.44 9.61Q21.30 9.43 21.22 9.25L21.22 9.25L21.22 9.25Q21.14 9.06 21.14 8.89L21.14 8.89L21.14 8.89Q21.14 8.37 21.40 7.73L21.40 7.73L21.40 7.73Q21.66 7.10 22.12 6.45L22.12 6.45L22.12 6.45Q22.58 5.80 23.21 5.19L23.21 5.19L23.21 5.19Q23.84 4.57 24.58 4.09L24.58 4.09L24.58 4.09Q25.32 3.62 26.14 3.33L26.14 3.33L26.14 3.33Q26.96 3.04 27.80 3.04L27.80 3.04L27.80 3.04Q28.10 3.04 28.34 3.13L28.34 3.13L28.34 3.13Q28.58 3.22 28.78 3.36L28.78 3.36L28.78 3.36Q28.98 3.51 29.13 3.68L29.13 3.68L29.13 3.68Q29.29 3.86 29.42 4.02L29.42 4.02L29.42 4.02Q29.54 4.18 29.63 4.32L29.63 4.32L29.63 4.32Q29.72 4.46 29.78 4.54ZM29.87 10.47L29.64 11.16L29.64 11.16Q30.01 10.70 30.32 10.40L30.32 10.40L30.32 10.40Q30.63 10.10 30.86 9.93L30.86 9.93L30.86 9.93Q31.10 9.75 31.26 9.69L31.26 9.69L31.26 9.69Q31.42 9.62 31.51 9.62L31.51 9.62L31.51 9.62Q31.62 9.62 31.75 9.70L31.75 9.70L31.75 9.70Q31.88 9.78 32.00 9.90L32.00 9.90L32.00 9.90Q32.13 10.01 32.24 10.14L32.24 10.14L32.24 10.14Q32.35 10.26 32.42 10.34L32.42 10.34L32.42 10.34Q32.50 10.41 32.52 10.50L32.52 10.50L32.52 10.50Q32.53 10.58 32.53 10.67L32.53 10.67L32.53 10.67Q32.53 10.99 32.42 11.37L32.42 11.37L32.42 11.37Q32.31 11.75 32.14 12.12L32.14 12.12L32.14 12.12Q31.96 12.50 31.73 12.83L31.73 12.83L31.73 12.83Q31.51 13.17 31.27 13.40L31.27 13.40L31.27 13.40Q31.47 13.32 31.68 13.20L31.68 13.20L31.68 13.20Q31.89 13.08 32.09 12.94L32.09 12.94L32.09 12.94Q32.30 12.80 32.50 12.66L32.50 12.66L32.50 12.66Q32.70 12.51 32.87 12.37L32.87 12.37L32.87 12.37Q33.29 12.04 33.68 11.66L33.68 11.66L33.99 12.00L33.99 12.00Q33.76 12.21 33.49 12.45L33.49 12.45L33.49 12.45Q33.21 12.69 32.91 12.92L32.91 12.92L32.91 12.92Q32.61 13.15 32.30 13.36L32.30 13.36L32.30 13.36Q31.99 13.58 31.70 13.74L31.70 13.74L31.70 13.74Q31.41 13.90 31.17 14L31.17 14L31.17 14Q30.92 14.10 30.74 14.10L30.74 14.10L30.74 14.10Q30.62 14.10 30.43 14.02L30.43 14.02L30.43 14.02Q30.25 13.95 30.07 13.85L30.07 13.85L30.07 13.85Q29.90 13.75 29.77 13.63L29.77 13.63L29.77 13.63Q29.65 13.51 29.65 13.41L29.65 13.41L29.65 13.41Q29.65 13.36 29.72 13.31L29.72 13.31L29.72 13.31Q29.79 13.27 29.93 13.15L29.93 13.15L29.93 13.15Q30.06 13.04 30.26 12.80L30.26 12.80L30.26 12.80Q30.45 12.57 30.69 12.13L30.69 12.13L30.69 12.13Q30.82 11.88 30.93 11.62L30.93 11.62L30.93 11.62Q31.05 11.35 31.14 11.13L31.14 11.13L31.14 11.13Q31.23 10.90 31.28 10.73L31.28 10.73L31.28 10.73Q31.33 10.56 31.33 10.50L31.33 10.50L31.33 10.50Q31.33 10.44 31.31 10.41L31.31 10.41L31.31 10.41Q31.29 10.39 31.28 10.38L31.28 10.38L31.28 10.38Q31.25 10.37 31.23 10.38L31.23 10.38L31.23 10.38Q31.14 10.40 30.85 10.68L30.85 10.68L30.85 10.68Q30.56 10.96 30.17 11.47L30.17 11.47L30.17 11.47Q29.78 11.99 29.34 12.73L29.34 12.73L29.34 12.73Q28.90 13.47 28.51 14.42L28.51 14.42L28.51 14.42Q28.19 15.34 27.87 16.28L27.87 16.28L27.87 16.28Q27.55 17.21 27.24 18.14L27.24 18.14L25.50 18.55L25.50 18.55Q25.90 17.42 26.33 16.31L26.33 16.31L26.33 16.31Q26.76 15.20 27.18 14.09L27.18 14.09L27.18 14.09Q27.60 12.98 28.00 11.87L28.00 11.87L28.00 11.87Q28.41 10.75 28.78 9.63L28.78 9.63L28.78 9.63Q28.80 9.56 28.82 9.53L28.82 9.53L28.82 9.53Q28.83 9.50 28.89 9.50L28.89 9.50L28.89 9.50Q29.00 9.53 29.16 9.62L29.16 9.62L29.16 9.62Q29.31 9.71 29.47 9.83L29.47 9.83L29.47 9.83Q29.62 9.95 29.74 10.08L29.74 10.08L29.74 10.08Q29.87 10.20 29.91 10.29L29.91 10.29L29.91 10.29Q29.93 10.31 29.91 10.36L29.91 10.36L29.91 10.36Q29.89 10.41 29.87 10.47L29.87 10.47ZM34.49 12.98L34.49 12.98L34.49 12.98Q34.49 13.19 34.64 13.19L34.64 13.19L34.64 13.19Q34.80 13.19 35.06 12.94L35.06 12.94L35.06 12.94Q35.32 12.69 35.60 12.30L35.60 12.30L35.60 12.30Q35.59 12.23 35.58 12.17L35.58 12.17L35.58 12.17Q35.58 12.11 35.58 12.07L35.58 12.07L35.58 12.07Q35.58 11.93 35.61 11.74L35.61 11.74L35.61 11.74Q35.64 11.55 35.77 11.31L35.77 11.31L35.77 11.31Q35.85 11.13 35.96 10.95L35.96 10.95L35.96 10.95Q36.06 10.79 36.20 10.61L36.20 10.61L36.20 10.61Q36.33 10.43 36.50 10.27L36.50 10.27L36.54 10.23L36.54 10.23Q36.61 10.32 36.72 10.46L36.72 10.46L36.72 10.46Q36.83 10.60 36.94 10.74L36.94 10.74L36.94 10.74Q37.06 10.89 37.14 11.01L37.14 11.01L37.14 11.01Q37.23 11.14 37.25 11.18L37.25 11.18L37.25 11.18Q37.25 11.48 37.14 11.77L37.14 11.77L37.14 11.77Q37.04 12.07 36.86 12.35L36.86 12.35L36.86 12.35Q37.27 12.33 37.62 12.14L37.62 12.14L37.62 12.14Q37.97 11.96 38.36 11.55L38.36 11.55L38.36 11.55Q38.42 11.61 38.52 11.72L38.52 11.72L38.52 11.72Q38.62 11.83 38.68 11.90L38.68 11.90L38.68 11.90Q38.39 12.20 38.11 12.40L38.11 12.40L38.11 12.40Q37.84 12.60 37.56 12.71L37.56 12.71L37.56 12.71Q37.28 12.83 37.00 12.88L37.00 12.88L37.00 12.88Q36.71 12.93 36.41 12.93L36.41 12.93L36.41 12.93Q36.18 13.18 35.91 13.38L35.91 13.38L35.91 13.38Q35.64 13.59 35.37 13.74L35.37 13.74L35.37 13.74Q35.09 13.89 34.82 13.97L34.82 13.97L34.82 13.97Q34.54 14.05 34.30 14.05L34.30 14.05L34.30 14.05Q34.09 14.05 33.87 13.93L33.87 13.93L33.87 13.93Q33.65 13.81 33.48 13.63L33.48 13.63L33.48 13.63Q33.30 13.45 33.18 13.24L33.18 13.24L33.18 13.24Q33.07 13.04 33.07 12.88L33.07 12.88L33.07 12.88Q33.07 12.36 33.21 11.85L33.21 11.85L33.21 11.85Q33.35 11.33 33.64 10.89L33.64 10.89L33.64 10.89Q33.94 10.44 34.40 10.10L34.40 10.10L34.40 10.10Q34.86 9.75 35.50 9.58L35.50 9.58L35.50 9.58Q35.52 9.56 35.57 9.56L35.57 9.56L35.57 9.56Q35.62 9.55 35.66 9.55L35.66 9.55L35.66 9.55Q35.75 9.55 35.86 9.62L35.86 9.62L35.86 9.62Q35.96 9.69 36.06 9.78L36.06 9.78L36.06 9.78Q36.15 9.87 36.21 9.96L36.21 9.96L36.21 9.96Q36.27 10.04 36.27 10.07L36.27 10.07L36.27 10.07Q36.26 10.10 36.17 10.15L36.17 10.15L36.17 10.15Q36.08 10.21 35.93 10.33L35.93 10.33L35.93 10.33Q35.78 10.45 35.57 10.68L35.57 10.68L35.57 10.68Q35.37 10.91 35.12 11.29L35.12 11.29L35.12 11.29Q34.75 11.84 34.62 12.29L34.62 12.29L34.62 12.29Q34.49 12.74 34.49 12.98ZM38.93 14.05L38.93 14.05L38.93 14.05Q38.81 14.05 38.63 13.95L38.63 13.95L38.63 13.95Q38.44 13.84 38.26 13.69L38.26 13.69L38.26 13.69Q38.08 13.54 37.95 13.37L37.95 13.37L37.95 13.37Q37.82 13.21 37.82 13.09L37.82 13.09L37.82 13.09Q37.82 12.89 37.94 12.44L37.94 12.44L37.94 12.44Q38.05 12.00 38.23 11.43L38.23 11.43L38.23 11.43Q38.42 10.86 38.65 10.21L38.65 10.21L38.65 10.21Q38.89 9.56 39.13 8.93L39.13 8.93L38.17 8.93L38.16 8.93L38.16 8.93Q38.15 8.93 38.15 8.92L38.15 8.92L38.15 8.92Q38.15 8.88 38.18 8.80L38.18 8.80L38.18 8.80Q38.21 8.72 38.26 8.64L38.26 8.64L38.26 8.64Q38.30 8.55 38.36 8.48L38.36 8.48L38.36 8.48Q38.42 8.41 38.47 8.39L38.47 8.39L39.36 8.35L39.36 8.35Q39.55 7.88 39.73 7.49L39.73 7.49L39.73 7.49Q39.90 7.10 40.04 6.82L40.04 6.82L40.04 6.82Q40.07 6.74 40.11 6.65L40.11 6.65L40.11 6.65Q40.15 6.57 40.22 6.48L40.22 6.48L40.22 6.48Q40.29 6.40 40.41 6.31L40.41 6.31L40.41 6.31Q40.53 6.21 40.74 6.12L40.74 6.12L40.74 6.12Q40.89 6.04 41.10 5.95L41.10 5.95L41.10 5.95Q41.32 5.87 41.52 5.79L41.52 5.79L41.52 5.79Q41.73 5.71 41.90 5.66L41.90 5.66L41.90 5.66Q42.08 5.61 42.15 5.61L42.15 5.61L42.15 5.61Q42.22 5.61 42.22 5.64L42.22 5.64L42.22 5.65L42.22 5.65Q42.22 5.66 42.21 5.69L42.21 5.69L42.21 5.69Q42.16 5.76 42.05 5.98L42.05 5.98L42.05 5.98Q41.95 6.21 41.78 6.56L41.78 6.56L41.78 6.56Q41.62 6.90 41.43 7.35L41.43 7.35L41.43 7.35Q41.23 7.79 41.03 8.28L41.03 8.28L42.67 8.22L42.67 8.22Q42.74 8.22 42.71 8.30L42.71 8.30L42.71 8.30Q42.68 8.38 42.61 8.49L42.61 8.49L42.61 8.49Q42.53 8.60 42.43 8.72L42.43 8.72L42.43 8.72Q42.33 8.83 42.27 8.89L42.27 8.89L42.27 8.89Q42.25 8.91 42.21 8.92L42.21 8.92L42.21 8.92Q42.17 8.93 42.11 8.93L42.11 8.93L40.76 8.93L40.76 8.93Q40.51 9.53 40.28 10.14L40.28 10.14L40.28 10.14Q40.06 10.75 39.88 11.29L39.88 11.29L39.88 11.29Q39.70 11.84 39.60 12.30L39.60 12.30L39.60 12.30Q39.49 12.76 39.49 13.05L39.49 13.05L39.49 13.05Q39.49 13.09 39.53 13.09L39.53 13.09L39.53 13.09Q39.61 13.09 39.76 13.01L39.76 13.01L39.76 13.01Q39.91 12.92 40.10 12.78L40.10 12.78L40.10 12.78Q40.28 12.65 40.50 12.48L40.50 12.48L40.50 12.48Q40.71 12.32 40.90 12.16L40.90 12.16L40.90 12.16Q41.09 12.00 41.24 11.86L41.24 11.86L41.24 11.86Q41.40 11.73 41.48 11.66L41.48 11.66L41.48 11.66Q41.54 11.72 41.63 11.82L41.63 11.82L41.63 11.82Q41.71 11.92 41.79 12.00L41.79 12.00L41.79 12.00Q41.64 12.15 41.41 12.36L41.41 12.36L41.41 12.36Q41.19 12.58 40.92 12.80L40.92 12.80L40.92 12.80Q40.66 13.03 40.38 13.25L40.38 13.25L40.38 13.25Q40.09 13.48 39.82 13.66L39.82 13.66L39.82 13.66Q39.55 13.84 39.32 13.95L39.32 13.95L39.32 13.95Q39.09 14.05 38.93 14.05Z"></path></g><!----><g data-v-423bf9ae="" id="0012af0c-86b7-47f0-976e-f7c5fb9a936b" transform="matrix(1.1286398013613543,0,0,1.1286398013613543,0.5673813160857435,1.0003858860417054)" stroke="none" fill="black"><path d="M90.28 36.129a5.703 5.703 0 0 1-8.056 0 5.7 5.7 0 0 1 0-8.056l8.056-8.056a5.696 5.696 0 0 1 8.055 0 5.703 5.703 0 0 1 0 8.056l-8.055 8.056zM69.713 56.958c-3.944-6.804-11.282-11.393-19.71-11.393s-15.772 4.589-19.71 11.393h-12.48c4.694-13.268 17.312-22.787 32.189-22.787 14.871 0 27.494 9.519 32.189 22.787H69.713zM50.002 22.784a5.697 5.697 0 0 1-5.697-5.697V5.694a5.697 5.697 0 0 1 11.394 0v11.394a5.7 5.7 0 0 1-5.697 5.696zM9.723 36.129l-8.054-8.056a5.694 5.694 0 0 1 0-8.056 5.695 5.695 0 0 1 8.054 0l8.056 8.056a5.698 5.698 0 0 1 0 8.056 5.703 5.703 0 0 1-8.056 0zM21.519 68.347H78.48a5.696 5.696 0 0 1 0 11.392H21.519a5.696 5.696 0 1 1 0-11.392z"></path></g><!----></svg>