<svg data-v-fde0c5aa="" xmlns="http://www.w3.org/2000/svg" viewBox="0 0 300 300" class="icon"><!----><defs data-v-fde0c5aa=""><!----></defs><rect data-v-fde0c5aa="" fill="#F3F6EF" x="0" y="0" width="300px" height="300px" class="logo-background-square"></rect><!----><defs data-v-fde0c5aa=""><linearGradient data-v-fde0c5aa="" gradientTransform="rotate(25)" id="750d2e15-d5d6-4284-9732-6f9455c92522" x1="0%" y1="0%" x2="100%" y2="0%"><stop data-v-fde0c5aa="" offset="0%" stop-color="#FD9245" stop-opacity="1"></stop><stop data-v-fde0c5aa="" offset="100%" stop-color="#06A96B" stop-opacity="1"></stop></linearGradient></defs><g data-v-fde0c5aa="" id="3f7e13ae-de3e-4470-a845-a7a203d1c4a7" fill="url(#750d2e15-d5d6-4284-9732-6f9455c92522)" stroke="none" transform="matrix(2.1999731448590714,0,0,2.1999731448590714,40.00103040477312,62.29146525627617)"><path d="M90.28 36.129a5.703 5.703 0 0 1-8.056 0 5.7 5.7 0 0 1 0-8.056l8.056-8.056a5.696 5.696 0 0 1 8.055 0 5.703 5.703 0 0 1 0 8.056l-8.055 8.056zM69.713 56.958c-3.944-6.804-11.282-11.393-19.71-11.393s-15.772 4.589-19.71 11.393h-12.48c4.694-13.268 17.312-22.787 32.189-22.787 14.871 0 27.494 9.519 32.189 22.787H69.713zM50.002 22.784a5.697 5.697 0 0 1-5.697-5.697V5.694a5.697 5.697 0 0 1 11.394 0v11.394a5.7 5.7 0 0 1-5.697 5.696zM9.723 36.129l-8.054-8.056a5.694 5.694 0 0 1 0-8.056 5.695 5.695 0 0 1 8.054 0l8.056 8.056a5.698 5.698 0 0 1 0 8.056 5.703 5.703 0 0 1-8.056 0zM21.519 68.347H78.48a5.696 5.696 0 0 1 0 11.392H21.519a5.696 5.696 0 1 1 0-11.392z"></path></g><!----></svg>