<svg data-v-423bf9ae="" xmlns="http://www.w3.org/2000/svg" viewBox="0 0 75.24357191351197 60" class="icon"><!----><!----><!----><!----><g data-v-423bf9ae="" id="dd0d3264-9535-4b03-829a-8788d4c3044f" transform="matrix(0.7524265342409029,0,0,0.7524265342409029,0.0003524585257892454,0.0022566495353224525)" stroke="none" fill="white"><path d="M90.28 36.129a5.703 5.703 0 0 1-8.056 0 5.7 5.7 0 0 1 0-8.056l8.056-8.056a5.696 5.696 0 0 1 8.055 0 5.703 5.703 0 0 1 0 8.056l-8.055 8.056zM69.713 56.958c-3.944-6.804-11.282-11.393-19.71-11.393s-15.772 4.589-19.71 11.393h-12.48c4.694-13.268 17.312-22.787 32.189-22.787 14.871 0 27.494 9.519 32.189 22.787H69.713zM50.002 22.784a5.697 5.697 0 0 1-5.697-5.697V5.694a5.697 5.697 0 0 1 11.394 0v11.394a5.7 5.7 0 0 1-5.697 5.696zM9.723 36.129l-8.054-8.056a5.694 5.694 0 0 1 0-8.056 5.695 5.695 0 0 1 8.054 0l8.056 8.056a5.698 5.698 0 0 1 0 8.056 5.703 5.703 0 0 1-8.056 0zM21.519 68.347H78.48a5.696 5.696 0 0 1 0 11.392H21.519a5.696 5.696 0 1 1 0-11.392z"></path></g><!----></svg>